<svg id="visual" viewBox="0 0 960 300" width="960" height="300" xmlns="http://www.w3.org/2000/svg" xmlns:xlink="http://www.w3.org/1999/xlink" version="1.1"><rect x="0" y="0" width="960" height="300" fill="#00C0F0"></rect><path d="M0 97L26.7 92.2C53.3 87.3 106.7 77.7 160 76.5C213.3 75.3 266.7 82.7 320 90.7C373.3 98.7 426.7 107.3 480 108.3C533.3 109.3 586.7 102.7 640 95.2C693.3 87.7 746.7 79.3 800 79.7C853.3 80 906.7 89 933.3 93.5L960 98L960 301L933.3 301C906.7 301 853.3 301 800 301C746.7 301 693.3 301 640 301C586.7 301 533.3 301 480 301C426.7 301 373.3 301 320 301C266.7 301 213.3 301 160 301C106.7 301 53.3 301 26.7 301L0 301Z" fill="#00a619"></path><path d="M0 165L26.7 157.5C53.3 150 106.7 135 160 125.5C213.3 116 266.7 112 320 110.7C373.3 109.3 426.7 110.7 480 117.5C533.3 124.3 586.7 136.7 640 145.3C693.3 154 746.7 159 800 153.3C853.3 147.7 906.7 131.3 933.3 123.2L960 115L960 301L933.3 301C906.7 301 853.3 301 800 301C746.7 301 693.3 301 640 301C586.7 301 533.3 301 480 301C426.7 301 373.3 301 320 301C266.7 301 213.3 301 160 301C106.7 301 53.3 301 26.7 301L0 301Z" fill="#009917"></path><path d="M0 169L26.7 173.8C53.3 178.7 106.7 188.3 160 194.5C213.3 200.7 266.7 203.3 320 205.8C373.3 208.3 426.7 210.7 480 210.2C533.3 209.7 586.7 206.3 640 202C693.3 197.7 746.7 192.3 800 188.3C853.3 184.3 906.7 181.7 933.3 180.3L960 179L960 301L933.3 301C906.7 301 853.3 301 800 301C746.7 301 693.3 301 640 301C586.7 301 533.3 301 480 301C426.7 301 373.3 301 320 301C266.7 301 213.3 301 160 301C106.7 301 53.3 301 26.7 301L0 301Z" fill="#008d15"></path><path d="M0 244L26.7 245.2C53.3 246.3 106.7 248.7 160 246C213.3 243.3 266.7 235.7 320 232.7C373.3 229.7 426.7 231.3 480 236.3C533.3 241.3 586.7 249.7 640 254.3C693.3 259 746.7 260 800 260.7C853.3 261.3 906.7 261.7 933.3 261.8L960 262L960 301L933.3 301C906.7 301 853.3 301 800 301C746.7 301 693.3 301 640 301C586.7 301 533.3 301 480 301C426.7 301 373.3 301 320 301C266.7 301 213.3 301 160 301C106.7 301 53.3 301 26.7 301L0 301Z" fill="#008013"></path></svg>